<svg width="205" height="35" viewBox="0 0 205 35" fill="none" xmlns="http://www.w3.org/2000/svg">
<g clip-path="url(#clip0_1_70)">
<path d="M53.6181 4.73511C50.3796 4.98106 47.5055 6.29275 45.1532 8.58001C42.5111 11.1706 41.2935 14.3596 41.4426 18.3275C41.5751 21.8937 42.8589 24.7466 45.4017 27.1404C47.6794 29.2801 50.363 30.436 53.6926 30.723C57.7014 31.0509 61.4038 29.8294 64.1536 27.2552L64.9405 26.5174L63.11 24.6482L61.2795 22.7709L60.7163 23.2545C59.565 24.2301 58.6705 24.722 57.3784 25.0909C55.3906 25.6648 53.3033 25.5172 51.5474 24.6974C49.5762 23.771 48.135 22.0166 47.5386 19.8114C47.373 19.2129 47.3481 18.9178 47.3481 17.7208C47.3481 16.5239 47.373 16.2288 47.5386 15.6303C48.5491 11.9166 51.887 9.66215 55.7799 10.0557C57.7097 10.2524 59.184 10.8837 60.6832 12.1708L61.2795 12.679L63.1017 10.8099L64.9322 8.93252L64.3358 8.35046C63.4827 7.52246 62.3314 6.70265 61.2216 6.12878C59.5733 5.29258 58.0659 4.88268 56.0532 4.72692C54.8688 4.63674 54.8605 4.63674 53.6181 4.73511Z" fill="#1601A8"/>
<path d="M78.027 4.8171C75.244 5.12862 72.7344 6.21897 70.6471 8.03074C67.0939 11.105 65.6113 15.4336 66.4313 20.2622C67.185 24.6728 70.7051 28.6325 75.1612 30.0999C77.7288 30.9443 80.9259 31.0345 83.5681 30.3459C86.674 29.5261 89.4404 27.5585 91.2461 24.8942C92.1903 23.4923 92.7701 22.0904 93.1179 20.3606C93.383 19.0407 93.383 16.4911 93.1179 15.1794C92.3062 11.1542 89.5647 7.7438 85.7133 5.95663C83.5184 4.94007 80.6857 4.52197 78.027 4.8171ZM81.7956 10.3016C83.1208 10.6541 84.0236 11.1706 85.0921 12.179C86.7486 13.7448 87.5437 15.7533 87.4443 18.1308C87.3615 20.2049 86.6326 21.8773 85.1997 23.3037C83.742 24.7384 82.2346 25.3696 80.0562 25.4434C79.112 25.4762 78.7476 25.4516 78.1098 25.3205C75.1363 24.7138 72.958 22.5577 72.2623 19.5244C72.0386 18.5652 72.0552 16.8191 72.2954 15.8435C72.6515 14.417 73.3804 13.1873 74.4737 12.138C75.6416 11.0312 76.7432 10.4656 78.3003 10.1704C79.17 10.0065 80.9425 10.0721 81.7956 10.3016Z" fill="#1601A8"/>
<path d="M134.879 4.93186C129.802 5.69428 125.884 9.12107 124.667 13.8677C124.236 15.5647 124.103 18.4341 124.368 20.3032C124.774 23.0988 125.934 25.3696 127.922 27.247C129.578 28.821 131.599 29.8376 134.092 30.3623C135.07 30.5672 135.277 30.5836 137.289 30.5918C139.211 30.5918 139.542 30.5754 140.379 30.4032C142.516 29.9769 144.446 29.1243 146.027 27.9028C146.665 27.4109 147.85 26.3698 147.85 26.296C147.85 26.2714 147.046 25.4762 146.069 24.5416L144.288 22.8282L143.766 23.3037C141.894 25.0253 139.261 25.8943 136.676 25.6402C132.957 25.2713 130.539 23.0988 130.133 19.7622L130.075 19.2375H139.741H149.407L149.473 18.6882C149.572 17.7618 149.448 15.2778 149.266 14.3678C148.744 11.8428 147.568 9.75232 145.646 7.92415C144.098 6.4485 142.333 5.53032 140.122 5.04663C139.128 4.82528 136.039 4.7597 134.879 4.93186ZM138.797 9.94087C139.534 10.1048 140.23 10.4 140.876 10.8263C141.389 11.1624 142.251 11.9576 142.615 12.4331C143.037 12.9824 143.427 14.0235 143.476 14.7285L143.501 15.0975H136.875H130.249L130.274 14.8187C130.324 14.376 130.663 13.4496 130.97 12.9496C131.334 12.3347 132.187 11.4903 132.916 11.0148C134.589 9.91628 136.85 9.49818 138.797 9.94087Z" fill="#1601A8"/>
<path d="M186.836 4.97284C183.772 5.25977 181.361 6.44029 179.15 8.71935C176.806 11.1378 175.679 14.0973 175.679 17.8028C175.688 20.9427 176.516 23.5251 178.247 25.8205C180.21 28.4029 182.91 30.0261 186.066 30.5262C187.25 30.7066 189.967 30.6328 191.127 30.3868C193.338 29.9195 195.268 28.7472 196.369 27.206L196.626 26.8535L196.717 27.206C196.875 27.7717 197.363 28.6243 197.786 29.0588C198.846 30.1491 200.039 30.5508 202.225 30.5508C203.261 30.5508 204.031 30.4688 204.694 30.2967L205 30.2147V27.8864V25.55H204.279C202.962 25.55 202.482 25.2712 202.167 24.3367L201.985 23.7874L201.952 14.622L201.927 5.46472H198.995H196.055L196.038 7.16172L196.013 8.86692L195.757 8.41603C194.812 6.77641 192.75 5.53031 190.257 5.10401C189.338 4.94825 187.747 4.88266 186.836 4.97284ZM190.588 10.4328C191.913 10.7033 193.148 11.3591 194.175 12.3429C195.641 13.7366 196.361 15.3352 196.444 17.3765C196.494 18.5816 196.394 19.3686 196.055 20.3606C195.699 21.4182 195.235 22.115 194.241 23.0906C193.081 24.2219 192.328 24.6564 190.77 25.0745C189.851 25.3204 187.929 25.3204 186.985 25.0745C184.492 24.4104 182.579 22.5331 181.842 20.0163C181.552 19.0161 181.477 17.3191 181.676 16.2534C182.198 13.5316 184.003 11.4329 186.513 10.6377C187.863 10.2032 189.147 10.1458 190.588 10.4328Z" fill="#1601A8"/>
<path d="M109.211 5.09586C107.795 5.3172 106.536 5.79269 105.476 6.50592C104.879 6.90763 103.885 7.92419 103.571 8.46526L103.331 8.86696L103.306 7.16177L103.289 5.46477H100.349H97.4084V17.7619V30.059H100.349H103.281L103.306 22.4512C103.339 13.9334 103.297 14.5318 103.968 13.1709C104.233 12.6135 104.44 12.3429 104.979 11.8183C106.064 10.7525 107.141 10.318 108.838 10.2442C110.561 10.1705 111.812 10.605 112.864 11.6461C113.518 12.2938 113.858 12.9086 114.156 13.9662C114.338 14.5974 114.338 14.6712 114.371 22.3282L114.396 30.059H117.328H120.269V21.9019C120.269 13.0562 120.26 12.7774 119.805 11.2198C119.507 10.1951 118.803 8.81778 118.173 8.04716C116.55 6.04683 113.932 4.95649 110.826 4.98108C110.305 4.98928 109.576 5.03847 109.211 5.09586Z" fill="#1601A8"/>
<path d="M150.749 5.50576C150.749 5.53855 158.443 15.9829 159.089 16.8273L159.28 17.0814L154.6 23.5333C152.024 27.0749 149.92 29.9934 149.92 30.018C149.92 30.0426 151.345 30.059 153.093 30.059H156.265L159.387 25.755C161.11 23.3857 162.535 21.451 162.551 21.451C162.568 21.451 163.984 23.3857 165.707 25.755L168.83 30.059H172.01C174.536 30.059 175.182 30.0344 175.133 29.9524C175.1 29.9032 172.988 26.9683 170.445 23.4431L165.815 17.0404L169.964 11.4494C172.242 8.37508 174.172 5.7681 174.238 5.66152L174.371 5.46477H171.141H167.902L165.268 9.08011C163.819 11.0722 162.601 12.7037 162.551 12.7119C162.51 12.7119 161.284 11.0886 159.818 9.09651L157.168 5.47297H153.962C152.19 5.46477 150.749 5.48116 150.749 5.50576Z" fill="#1601A8"/>
<path fill-rule="evenodd" clip-rule="evenodd" d="M0.908394 10.1542C6.3514 9.69189 10.9072 11.4362 14.5756 15.387C18.7816 20.6931 19.3872 26.3893 16.3924 32.4755C15.9693 33.2453 15.5151 33.9948 15.0298 34.724C14.4089 35.1175 13.8033 35.0903 13.213 34.6422C11.8917 33.8791 10.5704 33.1159 9.24909 32.3529C8.72024 31.8385 8.62395 31.2525 8.96005 30.5949C11.1677 26.8549 13.3423 23.0938 15.484 19.3116C15.6448 18.3894 15.2732 17.8034 14.3691 17.5537C9.7928 17.5531 5.22334 17.4985 0.660651 17.3902C0.386424 17.1897 0.179971 16.9309 0.0412926 16.6135C-0.0137642 14.7601 -0.0137642 12.9069 0.0412926 11.0536C0.235903 10.6566 0.524937 10.3569 0.908394 10.1542Z" fill="#FF646D"/>
<path fill-rule="evenodd" clip-rule="evenodd" d="M21.0229 0.0128903C21.4456 -0.0371151 21.8311 0.0583698 22.1793 0.299337C23.5559 1.09048 24.9325 1.88161 26.3092 2.67275C26.8868 3.25346 26.9557 3.89455 26.5157 4.59603C24.3263 8.27949 22.1788 11.9897 20.073 15.7265C19.9386 16.5562 20.2552 17.1427 21.0229 17.4861C25.5658 17.5134 30.1087 17.5407 34.6516 17.568C35.0784 17.718 35.3675 18.0044 35.5189 18.4273C35.574 20.2824 35.574 22.1374 35.5189 23.9926C35.3326 24.4228 35.0159 24.7092 34.569 24.8519C27.9454 25.3691 22.8656 22.873 19.3296 17.3634C16.2697 11.433 16.669 5.74501 20.5273 0.299337C20.7113 0.222324 20.8765 0.126839 21.0229 0.0128903Z" fill="#FF77AA"/>
</g>
<defs>
<clipPath id="clip0_1_70">
<rect width="205" height="35" fill="white"/>
</clipPath>
</defs>
</svg>
