<svg width="32" height="32" viewBox="0 0 32 32" fill="none" xmlns="http://www.w3.org/2000/svg">
<g clip-path="url(#clip0_1_96)">
<path d="M32 0H0V32H32V0Z" fill="white"/>
<path fill-rule="evenodd" clip-rule="evenodd" d="M2.66663 16C2.66663 8.63616 8.63616 2.66663 16 2.66663C23.3637 2.66663 29.3333 8.63616 29.3333 16C29.3333 23.3637 23.3637 29.3333 16 29.3333C8.63616 29.3333 2.66663 23.3637 2.66663 16ZM15.9998 7.99996C13.0543 7.99996 10.6665 10.3878 10.6665 13.3333C10.6665 16.2788 13.0543 18.6666 15.9998 18.6666C18.9453 18.6666 21.3332 16.2788 21.3332 13.3333C21.3332 10.3878 18.9453 7.99996 15.9998 7.99996ZM22.8153 21.3298C23.8257 21.9805 23.7764 23.3988 22.8562 24.1717C21.0022 25.7288 18.6108 26.6666 16.0001 26.6666C13.4068 26.6666 11.0295 25.7412 9.18071 24.2024C8.25237 23.4297 8.20319 22.0042 9.21797 21.3493C9.53388 21.1454 9.87791 20.9668 10.2513 20.8129C11.7535 20.1936 13.6722 20 16 20C18.3394 20 20.269 20.1812 21.7752 20.7938C22.1514 20.9469 22.4978 21.1254 22.8153 21.3298Z" fill="#1601A8"/>
</g>
<defs>
<clipPath id="clip0_1_96">
<rect width="32" height="32" fill="white"/>
</clipPath>
</defs>
</svg>
